<svg width="17" height="17" viewBox="0 0 17 17" fill="none" xmlns="http://www.w3.org/2000/svg">
<path d="M11.1182 16.068H5.88424C5.22759 16.0573 4.60135 15.7894 4.14006 15.3219C3.67877 14.8545 3.41925 14.2247 3.41724 13.568L2.59424 4H14.4822L13.6602 13.563C13.6552 14.2322 13.3846 14.8721 12.9079 15.3418C12.4312 15.8116 11.7875 16.0728 11.1182 16.068V16.068Z" stroke="#D97474" stroke-miterlimit="10"/>
<path d="M6.45215 7.03613V13.0321" stroke="#D97474" stroke-miterlimit="10" stroke-linecap="round"/>
<path d="M10.5513 7.03613V13.0321" stroke="#D97474" stroke-miterlimit="10" stroke-linecap="round"/>
<path d="M3.58123 4C3.55039 3.63659 3.59149 3.27066 3.70219 2.92314C3.81288 2.57562 3.99099 2.25334 4.22634 1.97471C4.46168 1.69609 4.74965 1.46658 5.07376 1.29934C5.39787 1.13209 5.75177 1.03037 6.11523 1H10.9602C11.6813 1.07856 12.3429 1.43676 12.8028 1.99766C13.2628 2.55857 13.4844 3.27747 13.4202 4H3.58123Z" stroke="#D97474" stroke-miterlimit="10"/>
<path d="M1 4H16" stroke="#D97474" stroke-miterlimit="10" stroke-linecap="round"/>
</svg>
